<svg width="1920" height="40" viewBox="0 0 1920 40" fill="none" xmlns="http://www.w3.org/2000/svg">
<rect width="1920" height="40" fill="#1F2125"/>
<path d="M1786 19.2314H1793.06V10H1786V19.2314ZM1786 30H1793.06V20.7686H1786V30ZM1794.47 30H1801.53V20.7686H1794.47V30ZM1802.94 30H1810V20.7686H1802.94V30ZM1794.47 19.2314H1801.53V10H1794.47V19.2314ZM1802.94 10V19.2314H1810V10H1802.94Z" fill="#707070"/>
<path d="M1836 22.8571H1841.65V17.1429H1836V22.8571ZM1836 30H1841.65V24.2857H1836V30ZM1836 15.7143H1841.65V10H1836V15.7143ZM1843.06 22.8571H1860V17.1429H1843.06V22.8571ZM1843.06 30H1860V24.2857H1843.06V30ZM1843.06 10V15.7143H1860V10H1843.06Z" fill="#FF9100"/>
<path d="M834 20L829.97 26L826 20H834Z" fill="#7A7F84"/>
<path d="M600.93 26.2266C599.32 26.2266 598.044 25.7005 597.102 24.6484C596.159 23.5964 595.688 22.1667 595.688 20.3594C595.688 18.5625 596.159 17.138 597.102 16.0859C598.049 15.0286 599.326 14.5 600.93 14.5C602.201 14.5 603.281 14.8594 604.172 15.5781C605.062 16.2917 605.591 17.2266 605.758 18.3828H603.766C603.599 17.7318 603.258 17.2135 602.742 16.8281C602.227 16.4427 601.622 16.25 600.93 16.25C599.961 16.25 599.188 16.6224 598.609 17.3672C598.036 18.1068 597.75 19.1042 597.75 20.3594C597.75 21.625 598.036 22.6276 598.609 23.3672C599.182 24.1068 599.958 24.4766 600.938 24.4766C601.646 24.4766 602.247 24.3047 602.742 23.9609C603.242 23.612 603.583 23.1276 603.766 22.5078H605.766C605.552 23.6641 605.016 24.5729 604.156 25.2344C603.302 25.8958 602.227 26.2266 600.93 26.2266ZM613.836 25.0156C613.112 25.7812 612.138 26.1641 610.914 26.1641C609.69 26.1641 608.716 25.7812 607.992 25.0156C607.268 24.2448 606.906 23.1927 606.906 21.8594C606.906 20.5312 607.271 19.4818 608 18.7109C608.729 17.9349 609.701 17.5469 610.914 17.5469C612.133 17.5469 613.104 17.9349 613.828 18.7109C614.557 19.4818 614.922 20.5312 614.922 21.8594C614.922 23.1927 614.56 24.2448 613.836 25.0156ZM609.43 23.8984C609.794 24.3828 610.289 24.625 610.914 24.625C611.539 24.625 612.034 24.3828 612.398 23.8984C612.763 23.4141 612.945 22.7344 612.945 21.8594C612.945 20.9896 612.763 20.3125 612.398 19.8281C612.034 19.3385 611.539 19.0938 610.914 19.0938C610.294 19.0938 609.799 19.3385 609.43 19.8281C609.065 20.3125 608.883 20.9896 608.883 21.8594C608.883 22.7344 609.065 23.4141 609.43 23.8984ZM620.875 17.5781C621.927 17.5781 622.763 17.9609 623.383 18.7266C624.003 19.4922 624.312 20.5365 624.312 21.8594C624.312 23.1771 624.005 24.2188 623.391 24.9844C622.776 25.75 621.948 26.1328 620.906 26.1328C620.312 26.1328 619.789 26 619.336 25.7344C618.883 25.4635 618.542 25.0938 618.312 24.625H618.273V28.7266H616.328V17.7188H618.227V19.1484H618.266C618.505 18.6589 618.852 18.276 619.305 18C619.758 17.7188 620.281 17.5781 620.875 17.5781ZM620.281 24.5391C620.911 24.5391 621.409 24.2995 621.773 23.8203C622.138 23.3359 622.32 22.6823 622.32 21.8594C622.32 21.0417 622.135 20.3906 621.766 19.9062C621.401 19.4219 620.906 19.1797 620.281 19.1797C619.677 19.1797 619.19 19.4245 618.82 19.9141C618.451 20.4036 618.263 21.0521 618.258 21.8594C618.263 22.6719 618.451 23.3229 618.82 23.8125C619.19 24.2969 619.677 24.5391 620.281 24.5391ZM631.945 17.7188V19.2188H629.398V26H627.469V19.2188H624.922V17.7188H631.945ZM635.055 26H633.148V17.7188H635.055V23.25H635.117L638.719 17.7188H640.625V26H638.719V20.4297H638.656L635.055 26ZM646.922 17.5781C647.974 17.5781 648.81 17.9609 649.43 18.7266C650.049 19.4922 650.359 20.5365 650.359 21.8594C650.359 23.1771 650.052 24.2188 649.438 24.9844C648.823 25.75 647.995 26.1328 646.953 26.1328C646.359 26.1328 645.836 26 645.383 25.7344C644.93 25.4635 644.589 25.0938 644.359 24.625H644.32V28.7266H642.375V17.7188H644.273V19.1484H644.312C644.552 18.6589 644.898 18.276 645.352 18C645.805 17.7188 646.328 17.5781 646.922 17.5781ZM646.328 24.5391C646.958 24.5391 647.456 24.2995 647.82 23.8203C648.185 23.3359 648.367 22.6823 648.367 21.8594C648.367 21.0417 648.182 20.3906 647.812 19.9062C647.448 19.4219 646.953 19.1797 646.328 19.1797C645.724 19.1797 645.237 19.4245 644.867 19.9141C644.497 20.4036 644.31 21.0521 644.305 21.8594C644.31 22.6719 644.497 23.3229 644.867 23.8125C645.237 24.2969 645.724 24.5391 646.328 24.5391ZM658.367 25.0156C657.643 25.7812 656.669 26.1641 655.445 26.1641C654.221 26.1641 653.247 25.7812 652.523 25.0156C651.799 24.2448 651.438 23.1927 651.438 21.8594C651.438 20.5312 651.802 19.4818 652.531 18.7109C653.26 17.9349 654.232 17.5469 655.445 17.5469C656.664 17.5469 657.635 17.9349 658.359 18.7109C659.089 19.4818 659.453 20.5312 659.453 21.8594C659.453 23.1927 659.091 24.2448 658.367 25.0156ZM653.961 23.8984C654.326 24.3828 654.82 24.625 655.445 24.625C656.07 24.625 656.565 24.3828 656.93 23.8984C657.294 23.4141 657.477 22.7344 657.477 21.8594C657.477 20.9896 657.294 20.3125 656.93 19.8281C656.565 19.3385 656.07 19.0938 655.445 19.0938C654.826 19.0938 654.331 19.3385 653.961 19.8281C653.596 20.3125 653.414 20.9896 653.414 21.8594C653.414 22.7344 653.596 23.4141 653.961 23.8984ZM664.328 19.0391H662.758V21.1016H664.18C665.096 21.1016 665.555 20.7526 665.555 20.0547C665.555 19.7318 665.448 19.4818 665.234 19.3047C665.026 19.1276 664.724 19.0391 664.328 19.0391ZM664.297 22.3359H662.758V24.6797H664.453C664.917 24.6797 665.271 24.5807 665.516 24.3828C665.76 24.1797 665.883 23.888 665.883 23.5078C665.883 22.7266 665.354 22.3359 664.297 22.3359ZM660.852 26V17.7188H664.781C665.615 17.7188 666.268 17.9062 666.742 18.2812C667.216 18.651 667.453 19.1641 667.453 19.8203C667.453 20.2526 667.312 20.6406 667.031 20.9844C666.755 21.3229 666.411 21.5286 666 21.6016V21.6641C666.547 21.737 666.987 21.9505 667.32 22.3047C667.654 22.6589 667.82 23.0938 667.82 23.6094C667.82 24.3438 667.552 24.9271 667.016 25.3594C666.484 25.7865 665.76 26 664.844 26H660.852ZM673.047 21.5859L676.719 26H674.336L671.258 22.2969H671.195V26H669.258V17.7188H671.195V21.1719H671.258L674.289 17.7188H676.555L673.047 21.5859ZM680.586 24.6641C681.143 24.6641 681.612 24.5 681.992 24.1719C682.378 23.8385 682.57 23.4245 682.57 22.9297V22.2969L680.656 22.4141C680.188 22.4453 679.823 22.5625 679.562 22.7656C679.307 22.9635 679.18 23.2266 679.18 23.5547C679.18 23.8932 679.307 24.1641 679.562 24.3672C679.823 24.5651 680.164 24.6641 680.586 24.6641ZM680 26.1328C679.193 26.1328 678.529 25.901 678.008 25.4375C677.492 24.974 677.234 24.3724 677.234 23.6328C677.234 22.8984 677.505 22.3177 678.047 21.8906C678.594 21.4635 679.372 21.2188 680.383 21.1562L682.57 21.0312V20.4375C682.57 20.0052 682.432 19.6693 682.156 19.4297C681.885 19.1901 681.508 19.0703 681.023 19.0703C680.57 19.0703 680.201 19.1719 679.914 19.375C679.628 19.5781 679.453 19.8542 679.391 20.2031H677.586C677.628 19.4167 677.964 18.7786 678.594 18.2891C679.229 17.7943 680.065 17.5469 681.102 17.5469C682.128 17.5469 682.948 17.7969 683.562 18.2969C684.182 18.7969 684.492 19.4635 684.492 20.2969V26H682.617V24.6797H682.578C682.344 25.1224 681.99 25.4766 681.516 25.7422C681.042 26.0026 680.536 26.1328 680 26.1328ZM687.484 26.0859C687.167 26.0859 686.898 25.9792 686.68 25.7656C686.466 25.5469 686.359 25.2786 686.359 24.9609C686.359 24.6484 686.466 24.3828 686.68 24.1641C686.898 23.9453 687.167 23.8359 687.484 23.8359C687.797 23.8359 688.06 23.9453 688.273 24.1641C688.492 24.3828 688.602 24.6484 688.602 24.9609C688.602 25.2786 688.492 25.5469 688.273 25.7656C688.06 25.9792 687.797 26.0859 687.484 26.0859ZM687.484 20.4453C687.167 20.4453 686.898 20.3359 686.68 20.1172C686.466 19.8984 686.359 19.6328 686.359 19.3203C686.359 19.0078 686.466 18.7422 686.68 18.5234C686.898 18.3047 687.167 18.1953 687.484 18.1953C687.797 18.1953 688.06 18.3047 688.273 18.5234C688.492 18.7422 688.602 19.0078 688.602 19.3203C688.602 19.6328 688.492 19.8984 688.273 20.1172C688.06 20.3359 687.797 20.4453 687.484 20.4453Z" fill="#FF9100"/>
<path d="M710.445 26H708.438V16.4375H703.094V26H701.07V14.7266H710.445V26ZM718.977 25.0156C718.253 25.7812 717.279 26.1641 716.055 26.1641C714.831 26.1641 713.857 25.7812 713.133 25.0156C712.409 24.2448 712.047 23.1927 712.047 21.8594C712.047 20.5312 712.411 19.4818 713.141 18.7109C713.87 17.9349 714.841 17.5469 716.055 17.5469C717.273 17.5469 718.245 17.9349 718.969 18.7109C719.698 19.4818 720.062 20.5312 720.062 21.8594C720.062 23.1927 719.701 24.2448 718.977 25.0156ZM714.57 23.8984C714.935 24.3828 715.43 24.625 716.055 24.625C716.68 24.625 717.174 24.3828 717.539 23.8984C717.904 23.4141 718.086 22.7344 718.086 21.8594C718.086 20.9896 717.904 20.3125 717.539 19.8281C717.174 19.3385 716.68 19.0938 716.055 19.0938C715.435 19.0938 714.94 19.3385 714.57 19.8281C714.206 20.3125 714.023 20.9896 714.023 21.8594C714.023 22.7344 714.206 23.4141 714.57 23.8984ZM725.594 29.0781C725.172 29.0781 724.917 29.0677 724.828 29.0469V27.5078C724.917 27.5286 725.104 27.5391 725.391 27.5391C725.792 27.5391 726.104 27.4557 726.328 27.2891C726.552 27.1224 726.719 26.849 726.828 26.4688C726.828 26.4635 726.846 26.388 726.883 26.2422C726.924 26.0964 726.943 26.0182 726.938 26.0078L723.992 17.7188H726.117L728.07 24.3438H728.102L730.055 17.7188H732.102L729.109 26.3281C728.755 27.3542 728.318 28.0677 727.797 28.4688C727.276 28.875 726.542 29.0781 725.594 29.0781ZM735.031 26H733.18V17.7188H735.656L738.102 23.5H738.164L740.609 17.7188H743.047V26H741.195V20.3359H741.133L738.797 25.6172H737.422L735.086 20.3359H735.031V26ZM751.383 25.0156C750.659 25.7812 749.685 26.1641 748.461 26.1641C747.237 26.1641 746.263 25.7812 745.539 25.0156C744.815 24.2448 744.453 23.1927 744.453 21.8594C744.453 20.5312 744.818 19.4818 745.547 18.7109C746.276 17.9349 747.247 17.5469 748.461 17.5469C749.68 17.5469 750.651 17.9349 751.375 18.7109C752.104 19.4818 752.469 20.5312 752.469 21.8594C752.469 23.1927 752.107 24.2448 751.383 25.0156ZM746.977 23.8984C747.341 24.3828 747.836 24.625 748.461 24.625C749.086 24.625 749.581 24.3828 749.945 23.8984C750.31 23.4141 750.492 22.7344 750.492 21.8594C750.492 20.9896 750.31 20.3125 749.945 19.8281C749.581 19.3385 749.086 19.0938 748.461 19.0938C747.841 19.0938 747.346 19.3385 746.977 19.8281C746.612 20.3125 746.43 20.9896 746.43 21.8594C746.43 22.7344 746.612 23.4141 746.977 23.8984ZM756.305 22.1406C756.263 22.7708 756.188 23.3177 756.078 23.7812C755.974 24.2396 755.818 24.6484 755.609 25.0078C755.406 25.3672 755.135 25.638 754.797 25.8203C754.458 25.9974 754.052 26.0859 753.578 26.0859C753.318 26.0859 753.107 26.0547 752.945 25.9922V24.3203C753.086 24.362 753.24 24.3828 753.406 24.3828C753.604 24.3828 753.773 24.3281 753.914 24.2188C754.055 24.1042 754.167 23.9401 754.25 23.7266C754.339 23.5078 754.406 23.263 754.453 22.9922C754.5 22.7214 754.534 22.4036 754.555 22.0391L754.82 17.7188H760.797V26H758.859V19.2188H756.5L756.305 22.1406ZM769.516 26H767.578V22.5078H767.484C766.979 23.013 766.284 23.2656 765.398 23.2656C764.445 23.2656 763.701 22.9948 763.164 22.4531C762.633 21.9062 762.367 21.1693 762.367 20.2422V17.7188H764.297V20.0234C764.297 20.5286 764.43 20.9245 764.695 21.2109C764.966 21.4974 765.346 21.6406 765.836 21.6406C766.612 21.6406 767.193 21.401 767.578 20.9219V17.7188H769.516V26ZM774.289 24.6641C774.846 24.6641 775.315 24.5 775.695 24.1719C776.081 23.8385 776.273 23.4245 776.273 22.9297V22.2969L774.359 22.4141C773.891 22.4453 773.526 22.5625 773.266 22.7656C773.01 22.9635 772.883 23.2266 772.883 23.5547C772.883 23.8932 773.01 24.1641 773.266 24.3672C773.526 24.5651 773.867 24.6641 774.289 24.6641ZM773.703 26.1328C772.896 26.1328 772.232 25.901 771.711 25.4375C771.195 24.974 770.938 24.3724 770.938 23.6328C770.938 22.8984 771.208 22.3177 771.75 21.8906C772.297 21.4635 773.076 21.2188 774.086 21.1562L776.273 21.0312V20.4375C776.273 20.0052 776.135 19.6693 775.859 19.4297C775.589 19.1901 775.211 19.0703 774.727 19.0703C774.273 19.0703 773.904 19.1719 773.617 19.375C773.331 19.5781 773.156 19.8542 773.094 20.2031H771.289C771.331 19.4167 771.667 18.7786 772.297 18.2891C772.932 17.7943 773.768 17.5469 774.805 17.5469C775.831 17.5469 776.651 17.7969 777.266 18.2969C777.885 18.7969 778.195 19.4635 778.195 20.2969V26H776.32V24.6797H776.281C776.047 25.1224 775.693 25.4766 775.219 25.7422C774.745 26.0026 774.24 26.1328 773.703 26.1328ZM785.336 26V22.4844H781.836V26H779.898V17.7188H781.836V20.9844H785.336V17.7188H787.273V26H785.336ZM790.93 26H789.023V17.7188H790.93V23.25H790.992L794.594 17.7188H796.5V26H794.594V20.4297H794.531L790.93 26ZM805.398 26.1641C804.279 26.1641 803.372 25.8411 802.68 25.1953C801.992 24.5495 801.591 23.6458 801.477 22.4844H800.18V26H798.242V17.7188H800.18V20.9844H801.508C801.659 19.9062 802.076 19.0651 802.758 18.4609C803.445 17.8516 804.326 17.5469 805.398 17.5469C806.622 17.5469 807.589 17.9297 808.297 18.6953C809.005 19.4609 809.359 20.5156 809.359 21.8594C809.359 23.2083 809.005 24.263 808.297 25.0234C807.594 25.7839 806.628 26.1641 805.398 26.1641ZM803.938 23.875C804.281 24.349 804.766 24.5859 805.391 24.5859C806.016 24.5859 806.5 24.349 806.844 23.875C807.193 23.401 807.367 22.7292 807.367 21.8594C807.367 20.9948 807.193 20.3229 806.844 19.8438C806.5 19.3646 806.016 19.125 805.391 19.125C804.771 19.125 804.286 19.3646 803.938 19.8438C803.594 20.3229 803.422 20.9948 803.422 21.8594C803.422 22.7292 803.594 23.401 803.938 23.875Z" fill="#7A7F84"/>
<path d="M367.93 26.2266C366.32 26.2266 365.044 25.7005 364.102 24.6484C363.159 23.5964 362.688 22.1667 362.688 20.3594C362.688 18.5625 363.159 17.138 364.102 16.0859C365.049 15.0286 366.326 14.5 367.93 14.5C369.201 14.5 370.281 14.8594 371.172 15.5781C372.062 16.2917 372.591 17.2266 372.758 18.3828H370.766C370.599 17.7318 370.258 17.2135 369.742 16.8281C369.227 16.4427 368.622 16.25 367.93 16.25C366.961 16.25 366.188 16.6224 365.609 17.3672C365.036 18.1068 364.75 19.1042 364.75 20.3594C364.75 21.625 365.036 22.6276 365.609 23.3672C366.182 24.1068 366.958 24.4766 367.938 24.4766C368.646 24.4766 369.247 24.3047 369.742 23.9609C370.242 23.612 370.583 23.1276 370.766 22.5078H372.766C372.552 23.6641 372.016 24.5729 371.156 25.2344C370.302 25.8958 369.227 26.2266 367.93 26.2266ZM380.836 25.0156C380.112 25.7812 379.138 26.1641 377.914 26.1641C376.69 26.1641 375.716 25.7812 374.992 25.0156C374.268 24.2448 373.906 23.1927 373.906 21.8594C373.906 20.5312 374.271 19.4818 375 18.7109C375.729 17.9349 376.701 17.5469 377.914 17.5469C379.133 17.5469 380.104 17.9349 380.828 18.7109C381.557 19.4818 381.922 20.5312 381.922 21.8594C381.922 23.1927 381.56 24.2448 380.836 25.0156ZM376.43 23.8984C376.794 24.3828 377.289 24.625 377.914 24.625C378.539 24.625 379.034 24.3828 379.398 23.8984C379.763 23.4141 379.945 22.7344 379.945 21.8594C379.945 20.9896 379.763 20.3125 379.398 19.8281C379.034 19.3385 378.539 19.0938 377.914 19.0938C377.294 19.0938 376.799 19.3385 376.43 19.8281C376.065 20.3125 375.883 20.9896 375.883 21.8594C375.883 22.7344 376.065 23.4141 376.43 23.8984ZM387.875 17.5781C388.927 17.5781 389.763 17.9609 390.383 18.7266C391.003 19.4922 391.312 20.5365 391.312 21.8594C391.312 23.1771 391.005 24.2188 390.391 24.9844C389.776 25.75 388.948 26.1328 387.906 26.1328C387.312 26.1328 386.789 26 386.336 25.7344C385.883 25.4635 385.542 25.0938 385.312 24.625H385.273V28.7266H383.328V17.7188H385.227V19.1484H385.266C385.505 18.6589 385.852 18.276 386.305 18C386.758 17.7188 387.281 17.5781 387.875 17.5781ZM387.281 24.5391C387.911 24.5391 388.409 24.2995 388.773 23.8203C389.138 23.3359 389.32 22.6823 389.32 21.8594C389.32 21.0417 389.135 20.3906 388.766 19.9062C388.401 19.4219 387.906 19.1797 387.281 19.1797C386.677 19.1797 386.19 19.4245 385.82 19.9141C385.451 20.4036 385.263 21.0521 385.258 21.8594C385.263 22.6719 385.451 23.3229 385.82 23.8125C386.19 24.2969 386.677 24.5391 387.281 24.5391ZM398.945 17.7188V19.2188H396.398V26H394.469V19.2188H391.922V17.7188H398.945ZM401.438 26.0859C401.12 26.0859 400.852 25.9792 400.633 25.7656C400.419 25.5469 400.312 25.2786 400.312 24.9609C400.312 24.6484 400.419 24.3828 400.633 24.1641C400.852 23.9453 401.12 23.8359 401.438 23.8359C401.75 23.8359 402.013 23.9453 402.227 24.1641C402.445 24.3828 402.555 24.6484 402.555 24.9609C402.555 25.2786 402.445 25.5469 402.227 25.7656C402.013 25.9792 401.75 26.0859 401.438 26.0859ZM401.438 20.4453C401.12 20.4453 400.852 20.3359 400.633 20.1172C400.419 19.8984 400.312 19.6328 400.312 19.3203C400.312 19.0078 400.419 18.7422 400.633 18.5234C400.852 18.3047 401.12 18.1953 401.438 18.1953C401.75 18.1953 402.013 18.3047 402.227 18.5234C402.445 18.7422 402.555 19.0078 402.555 19.3203C402.555 19.6328 402.445 19.8984 402.227 20.1172C402.013 20.3359 401.75 20.4453 401.438 20.4453Z" fill="#FF9100"/>
<path d="M423.305 22.5078C423.305 23.5495 422.953 24.3932 422.25 25.0391C421.547 25.6797 420.633 26 419.508 26H415.07V14.7266H422.234V16.4219H417.086V19.0547H419.445C420.586 19.0547 421.513 19.375 422.227 20.0156C422.945 20.651 423.305 21.4818 423.305 22.5078ZM417.086 24.3438H419C419.714 24.3438 420.266 24.1849 420.656 23.8672C421.047 23.5495 421.242 23.0964 421.242 22.5078C421.242 21.9141 421.047 21.4583 420.656 21.1406C420.266 20.8229 419.711 20.6641 418.992 20.6641H417.086V24.3438ZM428.508 19.0547C427.966 19.0547 427.513 19.2422 427.148 19.6172C426.789 19.987 426.589 20.4635 426.547 21.0469H430.414C430.393 20.4583 430.208 19.9792 429.859 19.6094C429.51 19.2396 429.06 19.0547 428.508 19.0547ZM430.422 23.5234H432.242C432.117 24.3099 431.719 24.9479 431.047 25.4375C430.375 25.9219 429.552 26.1641 428.578 26.1641C427.339 26.1641 426.365 25.7839 425.656 25.0234C424.948 24.2578 424.594 23.2135 424.594 21.8906C424.594 20.5781 424.945 19.526 425.648 18.7344C426.357 17.9427 427.307 17.5469 428.5 17.5469C429.672 17.5469 430.602 17.9245 431.289 18.6797C431.977 19.4297 432.32 20.4349 432.32 21.6953V22.3281H426.531V22.4453C426.531 23.112 426.719 23.6484 427.094 24.0547C427.474 24.4609 427.982 24.6641 428.617 24.6641C429.065 24.6641 429.451 24.5625 429.773 24.3594C430.102 24.151 430.318 23.8724 430.422 23.5234ZM436.148 22.1406C436.107 22.7708 436.031 23.3177 435.922 23.7812C435.818 24.2396 435.661 24.6484 435.453 25.0078C435.25 25.3672 434.979 25.638 434.641 25.8203C434.302 25.9974 433.896 26.0859 433.422 26.0859C433.161 26.0859 432.951 26.0547 432.789 25.9922V24.3203C432.93 24.362 433.083 24.3828 433.25 24.3828C433.448 24.3828 433.617 24.3281 433.758 24.2188C433.898 24.1042 434.01 23.9401 434.094 23.7266C434.182 23.5078 434.25 23.263 434.297 22.9922C434.344 22.7214 434.378 22.4036 434.398 22.0391L434.664 17.7188H440.641V26H438.703V19.2188H436.344L436.148 22.1406ZM448.977 25.0156C448.253 25.7812 447.279 26.1641 446.055 26.1641C444.831 26.1641 443.857 25.7812 443.133 25.0156C442.409 24.2448 442.047 23.1927 442.047 21.8594C442.047 20.5312 442.411 19.4818 443.141 18.7109C443.87 17.9349 444.841 17.5469 446.055 17.5469C447.273 17.5469 448.245 17.9349 448.969 18.7109C449.698 19.4818 450.062 20.5312 450.062 21.8594C450.062 23.1927 449.701 24.2448 448.977 25.0156ZM444.57 23.8984C444.935 24.3828 445.43 24.625 446.055 24.625C446.68 24.625 447.174 24.3828 447.539 23.8984C447.904 23.4141 448.086 22.7344 448.086 21.8594C448.086 20.9896 447.904 20.3125 447.539 19.8281C447.174 19.3385 446.68 19.0938 446.055 19.0938C445.435 19.0938 444.94 19.3385 444.57 19.8281C444.206 20.3125 444.023 20.9896 444.023 21.8594C444.023 22.7344 444.206 23.4141 444.57 23.8984ZM455.039 19.0547C454.497 19.0547 454.044 19.2422 453.68 19.6172C453.32 19.987 453.12 20.4635 453.078 21.0469H456.945C456.924 20.4583 456.74 19.9792 456.391 19.6094C456.042 19.2396 455.591 19.0547 455.039 19.0547ZM456.953 23.5234H458.773C458.648 24.3099 458.25 24.9479 457.578 25.4375C456.906 25.9219 456.083 26.1641 455.109 26.1641C453.87 26.1641 452.896 25.7839 452.188 25.0234C451.479 24.2578 451.125 23.2135 451.125 21.8906C451.125 20.5781 451.477 19.526 452.18 18.7344C452.888 17.9427 453.839 17.5469 455.031 17.5469C456.203 17.5469 457.133 17.9245 457.82 18.6797C458.508 19.4297 458.852 20.4349 458.852 21.6953V22.3281H453.062V22.4453C453.062 23.112 453.25 23.6484 453.625 24.0547C454.005 24.4609 454.513 24.6641 455.148 24.6641C455.596 24.6641 455.982 24.5625 456.305 24.3594C456.633 24.151 456.849 23.8724 456.953 23.5234ZM466.922 19.0391H465.352V21.1016H466.773C467.69 21.1016 468.148 20.7526 468.148 20.0547C468.148 19.7318 468.042 19.4818 467.828 19.3047C467.62 19.1276 467.318 19.0391 466.922 19.0391ZM466.891 22.3359H465.352V24.6797H467.047C467.51 24.6797 467.865 24.5807 468.109 24.3828C468.354 24.1797 468.477 23.888 468.477 23.5078C468.477 22.7266 467.948 22.3359 466.891 22.3359ZM463.445 26V17.7188H467.375C468.208 17.7188 468.862 17.9062 469.336 18.2812C469.81 18.651 470.047 19.1641 470.047 19.8203C470.047 20.2526 469.906 20.6406 469.625 20.9844C469.349 21.3229 469.005 21.5286 468.594 21.6016V21.6641C469.141 21.737 469.581 21.9505 469.914 22.3047C470.247 22.6589 470.414 23.0938 470.414 23.6094C470.414 24.3438 470.146 24.9271 469.609 25.3594C469.078 25.7865 468.354 26 467.438 26H463.445ZM473.758 26H471.852V17.7188H473.758V23.25H473.82L477.422 17.7188H479.328V26H477.422V20.4297H477.359L473.758 26ZM486.508 26V22.4844H483.008V26H481.07V17.7188H483.008V20.9844H486.508V17.7188H488.445V26H486.508ZM496.789 25.0156C496.065 25.7812 495.091 26.1641 493.867 26.1641C492.643 26.1641 491.669 25.7812 490.945 25.0156C490.221 24.2448 489.859 23.1927 489.859 21.8594C489.859 20.5312 490.224 19.4818 490.953 18.7109C491.682 17.9349 492.654 17.5469 493.867 17.5469C495.086 17.5469 496.057 17.9349 496.781 18.7109C497.51 19.4818 497.875 20.5312 497.875 21.8594C497.875 23.1927 497.513 24.2448 496.789 25.0156ZM492.383 23.8984C492.747 24.3828 493.242 24.625 493.867 24.625C494.492 24.625 494.987 24.3828 495.352 23.8984C495.716 23.4141 495.898 22.7344 495.898 21.8594C495.898 20.9896 495.716 20.3125 495.352 19.8281C494.987 19.3385 494.492 19.0938 493.867 19.0938C493.247 19.0938 492.753 19.3385 492.383 19.8281C492.018 20.3125 491.836 20.9896 491.836 21.8594C491.836 22.7344 492.018 23.4141 492.383 23.8984Z" fill="#7A7F84"/>
<path d="M523 20L518.97 26L515 20H523Z" fill="#7A7F84"/>
</svg>
